<svg 
 xmlns="http://www.w3.org/2000/svg"
 xmlns:xlink="http://www.w3.org/1999/xlink"
 width="53px" height="54px">
<path fill-rule="evenodd"  fill="rgb(255, 255, 255)"
 d="M51.531,31.731 L43.812,31.731 L42.374,31.731 L42.374,0.0 L43.812,0.0 L51.531,0.0 L52.999,0.0 L52.999,31.731 L51.531,31.731 ZM32.506,46.976 C32.875,52.251 31.819,53.702 29.305,53.962 C26.791,54.222 22.69,52.861 21.240,44.229 C20.881,40.493 23.572,33.138 23.572,33.138 C23.572,33.138 6.417,33.127 4.751,33.127 C2.86,33.127 0.0,31.996 0.0,28.393 C0.0,25.16 3.763,24.1 3.763,24.1 C3.763,24.1 1.354,23.67 1.354,20.227 C1.354,17.352 3.861,16.55 5.512,16.55 C4.484,15.549 3.49,14.576 3.365,12.116 C3.681,9.658 5.449,8.763 7.195,8.232 C6.67,7.541 5.245,5.630 5.873,4.160 C6.719,2.180 8.950,0.0 13.958,0.0 C20.20,0.0 36.692,0.0 37.357,0.0 C39.130,0.0 40.448,0.802 40.724,1.792 C40.724,3.820 40.724,28.895 40.724,28.895 C40.724,28.895 40.724,29.765 40.591,29.993 C34.350,39.105 32.137,41.702 32.506,46.976 Z"/>
</svg>