<svg 
 xmlns="http://www.w3.org/2000/svg"
 xmlns:xlink="http://www.w3.org/1999/xlink"
 >
<path fill-rule="evenodd"  fill="rgb(255, 255, 255)"
 d="M34.372,21.111 C34.372,21.111 36.54,21.768 36.54,23.766 C36.54,25.789 34.304,26.701 33.151,26.701 C33.868,27.58 34.870,27.743 34.650,29.473 C34.429,31.203 33.195,31.833 31.976,32.207 C32.764,32.693 33.338,34.38 32.899,35.72 C32.309,36.465 30.751,38.0 27.254,38.0 C23.22,38.0 11.384,38.0 10.920,38.0 C9.682,38.0 8.762,37.434 8.569,36.738 C8.569,35.311 8.569,17.667 8.569,17.667 C8.569,17.667 8.569,17.54 8.662,16.894 C13.19,10.482 14.564,8.655 14.306,4.944 C14.49,1.232 14.786,0.211 16.541,0.28 C18.296,0.154 21.593,0.803 22.171,6.877 C22.422,9.505 20.543,14.681 20.543,14.681 C20.543,14.681 32.519,14.689 33.682,14.689 C35.543,14.689 37.0,15.484 37.0,18.20 C37.0,20.396 34.372,21.111 34.372,21.111 ZM1.31,37.999 L0.0,37.999 L0.0,15.687 L1.31,15.687 L6.374,15.687 L7.406,15.687 L7.406,37.999 L6.374,37.999 L1.31,37.999 Z"/>
</svg>